<svg width="512" height="512" viewBox="0 0 512 512" fill="none" xmlns="http://www.w3.org/2000/svg">
<rect width="512" height="512" rx="76" fill="#1E293B"/>
<path d="M31 428.626L250.169 70.0354L325.7 30L322.886 118.148L103.717 476.739L31 428.626Z" fill="#CF3535"/>
<path d="M250.169 70.0354L31 428.626L103.717 476.739L322.886 118.148M250.169 70.0354L325.7 30L322.886 118.148M250.169 70.0354L322.886 118.148" stroke="white" stroke-width="12" stroke-miterlimit="16"/>
<path d="M297.141 304.453L374.859 206.01C377.261 202.967 381.875 202.967 384.277 206.01L461.996 304.453C462.071 304.548 462.094 304.577 462.169 304.672C464.323 307.414 522.843 383.786 418.627 458.394C395.335 475.068 363.801 475.068 340.509 458.394C236.293 383.786 294.813 307.415 296.967 304.672C297.042 304.577 297.065 304.548 297.141 304.453Z" fill="#CF3535" stroke="white" stroke-width="12" stroke-miterlimit="16"/>
<path d="M317.179 277.083C317.179 167.028 317.179 167.028 377.709 167.028C438.239 167.028 438.239 167.028 438.239 277.083" stroke="white" stroke-width="12" stroke-miterlimit="16"/>
<rect x="369.953" y="327.104" width="21.0163" height="40.2759" fill="white" stroke="white" stroke-width="12"/>
<circle cx="380.461" cy="373.381" r="21.5136" fill="white" stroke="white" stroke-width="12"/>
</svg>
